<svg xmlns="http://www.w3.org/2000/svg" width="1752.97" height="107" viewBox="0 0 1752.97 107"><g transform="translate(-5669.01 -4935)"><path d="M10,0H1742.97a10,10,0,0,1,10,10V97a10,10,0,0,1-10,10H0a0,0,0,0,1,0,0V10A10,10,0,0,1,10,0Z" transform="translate(5669.01 4935)" opacity="0.8"/><text transform="translate(5702.348 4985.836)" fill="#fff" font-size="23" font-family="Roboto-Medium, Roboto" font-weight="500"><tspan x="0" y="0">Select a Dentist to call until you find one that meets your needs.</tspan></text><g transform="translate(75.779)"><path d="M5889.221,5012.2l5.083,5.083,10.167-9.532" fill="none" stroke="#b3cee6" stroke-linecap="round" stroke-linejoin="round" stroke-width="4"/><text transform="matrix(1, 0, 0, 1, 5911.333, 5017.114)" fill="#fff" font-size="15.285" font-family="Roboto-Light, Roboto" font-weight="300"><tspan x="0" y="0">Pediatric Speciality</tspan></text></g><g transform="translate(149.779)"><path d="M6063.221,5012.266l5.083,5.083,10.167-9.532" fill="none" stroke="#b3cee6" stroke-linecap="round" stroke-linejoin="round" stroke-width="4"/><text transform="matrix(1, 0, 0, 1, 6085.968, 5017.184)" fill="#fff" font-size="15.285" font-family="Roboto-Light, Roboto" font-weight="300"><tspan x="0" y="0">Accepts Medicaid</tspan></text></g><g transform="translate(-0.031)"><path d="M5707.032,5011.947l5.084,5.084,10.167-9.532" fill="none" stroke="#b3cee6" stroke-linecap="round" stroke-linejoin="round" stroke-width="4"/><text transform="matrix(1, 0, 0, 1, 5727.533, 5016.866)" fill="#fff" font-size="15.285" font-family="Roboto-Light, Roboto" font-weight="300"><tspan x="0" y="0">Taking New Patients</tspan></text></g></g></svg>