<svg xmlns="http://www.w3.org/2000/svg" width="42" height="60.603" viewBox="0 0 42 60.603"><g fill="#ce5656"><path d="M 19.40216255187988 59.6504020690918 C 17.31814193725586 56.20865631103516 15.35409736633301 53.08821868896484 13.45096015930176 50.0645751953125 C 9.660129547119141 44.04180526733398 6.386250019073486 38.84036254882812 4.097330093383789 34.08097457885742 C 1.643079996109009 28.97780418395996 0.5 24.6947135925293 0.5 20.60184288024902 C 0.5 17.88908386230469 1.041489958763123 15.25765323638916 2.109430074691772 12.7806339263916 C 3.141319990158081 10.38722324371338 4.61883020401001 8.23746395111084 6.500909805297852 6.391063690185547 C 8.383660316467285 4.544013500213623 10.57614994049072 3.093833684921265 13.01747989654541 2.080823659896851 C 15.54541015625 1.031863689422607 18.23111915588379 0.5000036954879761 21 0.5000036954879761 C 23.76888084411621 0.5000036954879761 26.45458984375 1.031863689422607 28.98251914978027 2.080823659896851 C 31.42384910583496 3.093833684921265 33.61634063720703 4.544013500213623 35.49908828735352 6.391063690185547 C 37.38116836547852 8.23746395111084 38.85868072509766 10.38722324371338 39.89057159423828 12.7806339263916 C 40.95851135253906 15.25765323638916 41.5 17.88908386230469 41.5 20.60184288024902 C 41.5 24.11551284790039 40.40029907226562 27.77047348022461 38.03918838500977 32.10421371459961 C 35.85491943359375 36.11336517333984 32.81309127807617 40.34438323974609 29.29093933105469 45.24349212646484 C 26.25656700134277 49.46414566040039 22.83340072631836 54.22562789916992 19.40216255187988 59.6504020690918 Z" stroke="none"/><path d="M 21 1.000003814697266 C 18.29722023010254 1.000003814697266 15.67598915100098 1.519023895263672 13.20911026000977 2.542633056640625 C 10.82711029052734 3.531032562255859 8.687961578369141 4.945915222167969 6.851058959960938 6.747982025146484 C 5.015499114990234 8.548744201660156 3.574661254882812 10.64502334594727 2.568569183349609 12.97858428955078 C 1.527740478515625 15.39272308349609 1 17.95756530761719 1 20.60184478759766 C 1 24.6169548034668 2.12738037109375 28.83118438720703 4.547931671142578 33.86427307128906 C 6.824531555175781 38.59805297851562 10.09140014648438 43.78836441040039 13.87412071228027 49.79823303222656 C 15.65084838867188 52.62104415893555 17.48042297363281 55.52780914306641 19.41197967529297 58.70289611816406 C 22.70539855957031 53.54706192016602 25.9737606048584 49.0009651184082 28.88499069213867 44.95160293579102 C 32.39736938476562 40.06607437133789 35.43077087402344 35.84677124023438 37.60012817382812 31.86499404907227 C 39.91967010498047 27.60756301879883 41 24.02862548828125 41 20.60184478759766 C 41 17.95756530761719 40.47225952148438 15.39272308349609 39.43143081665039 12.97858428955078 C 38.42533874511719 10.64502334594727 36.98450088500977 8.548744201660156 35.14894104003906 6.747982025146484 C 33.31204223632812 4.945915222167969 31.17288970947266 3.531032562255859 28.79088973999023 2.542633056640625 C 26.32400894165039 1.519023895263672 23.70277976989746 1.000003814697266 21 1.000003814697266 M 21 3.814697265625e-06 C 32.59798049926758 3.814697265625e-06 42 9.2237548828125 42 20.60184478759766 C 42 31.97992324829102 30.80210113525391 42.37986373901367 19.3934497833252 60.60302352905273 C 8.543239593505859 42.59591293334961 0 31.97992324829102 0 20.60184478759766 C 0 9.2237548828125 9.402019500732422 3.814697265625e-06 21 3.814697265625e-06 Z" stroke="none" fill="#707070"/></g><g transform="translate(10 11)" fill="#fff" stroke="#707070" stroke-width="1"><ellipse cx="11" cy="10.5" rx="11" ry="10.5" stroke="none"/><ellipse cx="11" cy="10.5" rx="10.5" ry="10" fill="none"/></g></svg>