<svg id="Aldi" xmlns="http://www.w3.org/2000/svg" width="41.656" height="55.049" viewBox="0 0 41.656 55.049">
  <g id="Group_3" data-name="Group 3">
    <g id="Path_1" data-name="Path 1" fill="#56a6e0">
      <path d="M 21.40771484375 54.18511581420898 L 11.12680530548096 41.34375762939453 L 10.9766845703125 41.15624618530273 L 10.73648452758789 41.15624618530273 L 4.431515216827393 41.15624618530273 C 2.263674974441528 41.15624618530273 0.5000050067901611 39.392578125 0.5000050067901611 37.22473526000977 L 0.5000050067901611 4.431517124176025 C 0.5000050067901611 2.263667106628418 2.263674974441528 0.4999970495700836 4.431515216827393 0.4999970495700836 L 37.22473526000977 0.4999970495700836 C 39.39258575439453 0.4999970495700836 41.15625381469727 2.263667106628418 41.15625381469727 4.431517124176025 L 41.15625381469727 37.22473526000977 C 41.15625381469727 39.392578125 39.39258575439453 41.15624618530273 37.22473526000977 41.15624618530273 L 29.79610443115234 41.15624618530273 L 29.51839447021484 41.15624618530273 L 29.37163543701172 41.39200592041016 L 21.40771484375 54.18511581420898 Z" stroke="none"/>
      <path d="M 4.431514739990234 0.9999961853027344 C 2.539363861083984 0.9999961853027344 0.9999961853027344 2.53936767578125 0.9999961853027344 4.4315185546875 L 0.9999961853027344 37.22473907470703 C 0.9999961853027344 39.11687469482422 2.539363861083984 40.65624618530273 4.431514739990234 40.65624618530273 L 11.21688461303711 40.65624618530273 L 21.3565559387207 53.32119750976562 L 29.24068450927734 40.65624618530273 L 37.22473526000977 40.65624618530273 C 39.11687469482422 40.65624618530273 40.65624618530273 39.11687469482422 40.65624618530273 37.22473907470703 L 40.65624618530273 4.4315185546875 C 40.65624618530273 2.53936767578125 39.11687469482422 0.9999961853027344 37.22473526000977 0.9999961853027344 L 4.431514739990234 0.9999961853027344 M 4.431514739990234 -3.814697265625e-06 L 37.22473526000977 -3.814697265625e-06 C 39.67219543457031 -3.814697265625e-06 41.65624618530273 1.984058380126953 41.65624618530273 4.4315185546875 L 41.65624618530273 37.22473907470703 C 41.65624618530273 39.67219543457031 39.67219543457031 41.65624618530273 37.22473526000977 41.65624618530273 L 29.79610443115234 41.65624618530273 L 21.45887565612793 55.04903793334961 L 10.73648452758789 41.65624618530273 L 4.431514739990234 41.65624618530273 C 1.984054565429688 41.65624618530273 -3.814697265625e-06 39.67219543457031 -3.814697265625e-06 37.22473907470703 L -3.814697265625e-06 4.4315185546875 C -3.814697265625e-06 1.984058380126953 1.984054565429688 -3.814697265625e-06 4.431514739990234 -3.814697265625e-06 Z" stroke="none" fill="#707070"/>
    </g>
    <g id="Polygon_1" data-name="Polygon 1" transform="translate(3.324 4.21)" fill="#fff">
      <path d="M 25.67199897766113 30.85416412353516 C 25.42296028137207 30.85417366027832 25.18611907958984 30.77822303771973 24.96806907653809 30.6284236907959 L 18.49538993835449 26.18190383911133 C 18.20248985290527 25.98068428039551 17.85984992980957 25.87433433532715 17.50448989868164 25.87433433532715 C 17.14912986755371 25.87433433532715 16.80648040771484 25.98068428039551 16.51358032226562 26.18190383911133 L 10.04090976715088 30.6284236907959 C 9.822859764099121 30.77821350097656 9.586030006408691 30.85416412353516 9.336979866027832 30.85416412353516 C 8.94281005859375 30.85416412353516 8.562999725341797 30.66046333312988 8.321000099182129 30.33601379394531 C 8.085209846496582 30.01988410949707 8.019149780273438 29.63128471374512 8.135000228881836 29.24177360534668 L 10.36870002746582 21.7313346862793 C 10.57435035705566 21.03987312316895 10.32755947113037 20.28082466125488 9.754599571228027 19.8425235748291 L 3.527719974517822 15.07905387878418 C 3.009799957275391 14.68285369873047 2.966269969940186 14.10712432861328 3.098229885101318 13.70044422149658 C 3.230179786682129 13.29376411437988 3.603439807891846 12.85327434539795 4.25531005859375 12.83664417266846 L 12.10336017608643 12.63634395599365 C 12.82308959960938 12.61796379089355 13.46809005737305 12.14964389801025 13.70837020874023 11.47096347808838 L 16.32616996765137 4.077173709869385 C 16.54356002807617 3.463143825531006 17.07739067077637 3.244363784790039 17.50448989868164 3.244363784790039 C 17.93158912658691 3.244363784790039 18.46541976928711 3.463143825531006 18.68280982971191 4.077173709869385 L 21.30060005187988 11.47097396850586 C 21.54088973999023 12.14964389801025 22.18589973449707 12.61796379089355 22.90562057495117 12.63634395599365 L 30.75366973876953 12.83664417266846 C 31.40554046630859 12.85327434539795 31.77879905700684 13.29376411437988 31.91075897216797 13.70044422149658 C 32.04270935058594 14.10712432861328 31.99917984008789 14.68285369873047 31.48126029968262 15.07905387878418 L 25.25437927246094 19.8425235748291 C 24.68141937255859 20.28081321716309 24.43462944030762 21.03987312316895 24.6402702331543 21.7313346862793 L 26.87397956848145 29.24178314208984 C 26.98980903625488 29.63123321533203 26.92374992370605 30.01982307434082 26.68795967102051 30.3359546661377 C 26.4459400177002 30.66043472290039 26.06613922119141 30.85416412353516 25.67199897766113 30.85416412353516 Z" stroke="none"/>
      <path d="M 17.50448989868164 3.494354248046875 C 17.16280937194824 3.494354248046875 16.73575019836426 3.669374465942383 16.56183052062988 4.160614013671875 L 13.94403076171875 11.55440330505371 C 13.66942977905273 12.33002471923828 12.93228912353516 12.86526298522949 12.10973930358887 12.88626480102539 L 4.261690139770508 13.08656311035156 C 3.740190505981445 13.09987449645996 3.441579818725586 13.4522533416748 3.336019515991211 13.77760314941406 C 3.230449676513672 14.10294342041016 3.265270233154297 14.56353378295898 3.679599761962891 14.88048362731934 L 9.906499862670898 19.64396286010742 C 10.56130981445312 20.14488410949707 10.84334945678711 21.01237487792969 10.60832023620605 21.80260467529297 L 8.374608993530273 29.31304359436035 C 8.281820297241211 29.62502288818359 8.333950042724609 29.93523406982422 8.521379470825195 30.1865234375 C 8.713529586791992 30.44413375854492 9.026039123535156 30.60416412353516 9.336980819702148 30.60416412353516 C 9.534540176391602 30.60416412353516 9.723749160766602 30.54299354553223 9.899349212646484 30.42236328125 L 16.37202072143555 25.97584342956543 C 16.70674896240234 25.74588394165039 17.09836006164551 25.62433433532715 17.50448989868164 25.62433433532715 C 17.91061973571777 25.62433433532715 18.30221939086914 25.74588394165039 18.63694953918457 25.97584342956543 L 25.109619140625 30.42236328125 C 25.28522872924805 30.54299354553223 25.47443962097168 30.60416412353516 25.67200088500977 30.60416412353516 C 25.98289108276367 30.60416412353516 26.29539108276367 30.44412422180176 26.487548828125 30.18650436401367 C 26.67498970031738 29.93518447875977 26.72713088989258 29.62498474121094 26.63436126708984 29.31304359436035 L 24.40065002441406 21.80260467529297 C 24.16561889648438 21.01237487792969 24.44766998291016 20.14487457275391 25.10247993469238 19.64395523071289 L 31.32937049865723 14.88047409057617 C 31.74370002746582 14.56352424621582 31.77853012084961 14.10294342041016 31.67296028137207 13.77760314941406 C 31.5673999786377 13.4522533416748 31.26878929138184 13.09987449645996 30.74728965759277 13.08656311035156 L 22.89923095703125 12.88626480102539 C 22.07670021057129 12.86526298522949 21.33955001831055 12.33003425598145 21.06493949890137 11.55441474914551 L 18.4471492767334 4.160614013671875 C 18.27322959899902 3.669384002685547 17.84615898132324 3.494354248046875 17.50448989868164 3.494354248046875 M 17.50448608398438 2.994358062744141 C 18.09353828430176 2.994358062744141 18.68259048461914 3.327484130859375 18.91847991943359 3.993734359741211 L 21.53627014160156 11.38753318786621 C 21.7436695098877 11.97331428527832 22.29077911376953 12.37056350708008 22.91199111938477 12.38642311096191 L 30.76004981994629 12.58672332763672 C 32.17465972900391 12.62282371520996 32.757080078125 14.41783332824707 31.63315963745117 15.27760314941406 L 25.40628051757812 20.04108428955078 C 24.91191101074219 20.41926383972168 24.70246124267578 21.0634651184082 24.8798999786377 21.66006469726562 L 27.11360931396484 29.17050361633301 C 27.5167407989502 30.52596473693848 25.99209976196289 31.63521194458008 24.82650947570801 30.8344841003418 L 18.35383033752441 26.38796424865723 C 17.8421630859375 26.03645515441895 17.16682243347168 26.03645324707031 16.6551399230957 26.38796424865723 L 10.18247032165527 30.8344841003418 C 9.016876220703125 31.63521575927734 7.492233276367188 30.52595138549805 7.895359039306641 29.17050361633301 L 10.12907028198242 21.66006469726562 C 10.30650901794434 21.0634651184082 10.09705924987793 20.41926383972168 9.602699279785156 20.04108428955078 L 3.375810623168945 15.27761459350586 C 2.251899719238281 14.41783332824707 2.834320068359375 12.62282371520996 4.248929977416992 12.58672332763672 L 12.09697914123535 12.38642311096191 C 12.71818923950195 12.37056350708008 13.26531028747559 11.97332382202148 13.47270011901855 11.38753318786621 L 16.09049987792969 3.993734359741211 C 16.32638549804688 3.327484130859375 16.91543579101562 2.994358062744141 17.50448608398438 2.994358062744141 Z" stroke="none" fill="#707070"/>
    </g>
  </g>
</svg>
