<svg id="Layer_1" data-name="Layer 1" xmlns="http://www.w3.org/2000/svg" xmlns:xlink="http://www.w3.org/1999/xlink" viewBox="0 0 275.52 400.32"><defs><style>.cls-1{opacity:0;}</style></defs><image id="background" width="574" height="834" transform="scale(0.48)" xlink:href="shoppinglist1.png"/><path id="button-breakfast" class="cls-1" d="M141.19,308.23H33.58v-17H141.19Z" transform="translate(0.11)"/><path id="button-toothpaste" class="cls-1" d="M141.19,334.55H33.58v-17H141.19Z" transform="translate(0.11)"/><path id="button-soda" class="cls-1" d="M141.19,358.55H33.58v-17H141.19Z" transform="translate(0.11)"/><path id="strike-soda" class="cls-1" d="M30.59,349.08c-.66-.14.12-.67.35-.79a3.26,3.26,0,0,1,2-.36,115.67,115.67,0,0,0,21.67,1.85c26.22.34,52.44.45,78.65.67.65,0,.55.36.18.67a3.36,3.36,0,0,1-2.05.55L109,351.48l-39.9-.34c-12.78-.11-25.9.52-38.49-2.06Z" transform="translate(0.11)"/><path id="strike-toothpaste" class="cls-1" d="M30.25,327.82c-1.32-.73,1.29-2.08,2.26-1.55,5.7,3.16,12.5,2.35,18.74,2,25.45-1.5,51.1-2.65,76.47.69,1.95.25.22,2.06-1.06,1.89-7.31-1-14.66-1.56-22-1.88-13-.55-26-.24-39,.38-6.44.3-12.87.75-19.31,1.06-5.49.26-11.19.15-16.11-2.58Z" transform="translate(0.11)"/><path id="strike-breakfast" class="cls-1" d="M34,304.9c-.46.05-1-.07-.71-.58s1.39-.67,1.93-.72q11.32-1.05,22.67-1.87,40.59-2.93,81.31-2.92c.44,0,1,0,.71.58s-1.41.72-1.93.72q-11.55,0-23.08.24-40.51.82-80.9,4.55Z" transform="translate(0.11)"/></svg>